<svg width="1600" height="1000" viewBox="0 0 1600 1000" fill="none" xmlns="http://www.w3.org/2000/svg">
  <rect width="1600" height="1000" fill="#FFF9F4"/>
  <rect x="96" y="92" width="1408" height="816" rx="40" fill="url(#paint0_linear)"/>
  <rect x="170" y="190" width="560" height="600" rx="32" fill="#0F172A" fill-opacity="0.08"/>
  <rect x="260" y="292" width="382" height="42" rx="21" fill="#FEE2E2"/>
  <rect x="260" y="380" width="320" height="42" rx="21" fill="#FEE2E2"/>
  <rect x="260" y="468" width="348" height="42" rx="21" fill="#FEE2E2"/>
  <rect x="260" y="556" width="280" height="42" rx="21" fill="#FEE2E2"/>
  <rect x="820" y="208" width="520" height="122" rx="26" fill="#FFFFFF" fill-opacity="0.9"/>
  <rect x="820" y="388" width="490" height="36" rx="18" fill="#FDE68A"/>
  <rect x="820" y="450" width="438" height="36" rx="18" fill="#FDE68A"/>
  <rect x="820" y="512" width="396" height="36" rx="18" fill="#FDE68A"/>
  <rect x="820" y="612" width="264" height="72" rx="22" fill="#0B5CFF"/>
  <circle cx="1320" cy="640" r="84" fill="#F59E0B" fill-opacity="0.22"/>
  <circle cx="1240" cy="742" r="38" fill="#EF4444"/>
  <circle cx="1380" cy="758" r="28" fill="#22C55E"/>
  <text x="820" y="286" fill="#0F172A" font-family="Arial, sans-serif" font-size="50" font-weight="700">7 Payroll Errors</text>
  <text x="820" y="748" fill="#0F172A" font-family="Arial, sans-serif" font-size="28" font-weight="600">Process gaps growing teams should fix</text>
  <defs>
    <linearGradient id="paint0_linear" x1="96" y1="92" x2="1504" y2="908" gradientUnits="userSpaceOnUse">
      <stop stop-color="#FFF0E6"/>
      <stop offset="1" stop-color="#FFFFFF"/>
    </linearGradient>
  </defs>
</svg>
