<svg width="1200" height="840" viewBox="0 0 1200 840" fill="none" xmlns="http://www.w3.org/2000/svg">
  <rect width="1200" height="840" rx="36" fill="#F8FBFF"/>
  <rect x="138" y="110" width="924" height="620" rx="40" fill="#FFFFFF" stroke="#D9E5F5" stroke-width="6"/>
  <circle cx="600" cy="278" r="144" fill="#EAF2FF"/>
  <path d="M600 192L714 238V332C714 412 653 474 600 498C547 474 486 412 486 332V238L600 192Z" fill="#1E4ED8"/>
  <path d="M600 228L662 252V326C662 382 629 424 600 440C571 424 538 382 538 326V252L600 228Z" fill="#FFFFFF"/>
  <path d="M566 326L594 352L642 302" stroke="#1E4ED8" stroke-width="12" stroke-linecap="round" stroke-linejoin="round"/>
  <rect x="258" y="512" width="216" height="120" rx="26" fill="#F8FBFF" stroke="#D9E5F5"/>
  <rect x="286" y="546" width="96" height="14" rx="7" fill="#1E4ED8"/>
  <rect x="286" y="576" width="120" height="12" rx="6" fill="#D7E3F6"/>
  <circle cx="882" cy="552" r="82" fill="#EAF2FF"/>
  <rect x="846" y="514" width="72" height="106" rx="18" fill="#1E4ED8"/>
  <rect x="868" y="548" width="28" height="20" rx="8" fill="#FFFFFF"/>
  <path d="M830 552H936" stroke="#AFC5F4" stroke-width="6" stroke-linecap="round"/>
  <path d="M882 470V494" stroke="#AFC5F4" stroke-width="6" stroke-linecap="round"/>
  <path d="M664 552H778" stroke="#AFC5F4" stroke-width="6" stroke-linecap="round"/>
  <path d="M600 608V644" stroke="#AFC5F4" stroke-width="6" stroke-linecap="round"/>
  <circle cx="600" cy="608" r="18" fill="#1E4ED8" fill-opacity="0.16"/>
  <path d="M260 250H372" stroke="#AFC5F4" stroke-width="6" stroke-linecap="round"/>
  <path d="M828 250H940" stroke="#AFC5F4" stroke-width="6" stroke-linecap="round"/>
</svg>
